<?xml version="1.0" encoding="UTF-8"?> <!-- Creator: CorelDRAW --> <svg xmlns="http://www.w3.org/2000/svg" xmlns:xlink="http://www.w3.org/1999/xlink" xml:space="preserve" width="155.236mm" height="155.236mm" shape-rendering="geometricPrecision" text-rendering="geometricPrecision" image-rendering="optimizeQuality" fill-rule="evenodd" clip-rule="evenodd" viewBox="0 0 91.2042 91.2042"> <g id="Слой_x0020_1"> <metadata id="CorelCorpID_0Corel-Layer"></metadata> <g id="_102965104"> <circle id="_102966208" fill="#37AEE2" cx="45.6021" cy="45.6021" r="45.6021"></circle> <path id="_102966160" fill="#14608C" d="M91.1906 44.547l-20.2432 -20.2096 -32.9738 40.1922 23.7423 23.7423c17.2323,-6.51101 29.4883,-23.158 29.4883,-42.6699 0,-0.352864 -0.00552269,-0.704495 -0.0135717,-1.05507z"></path> <path id="_102966112" fill="white" d="M68.3527 23.7843c1.81802,-0.709313 3.69732,0.881456 3.2981,2.79137l-8.15313 38.9721c-0.380889,1.82713 -2.52739,2.65007 -4.03209,1.54459l-12.3079 -9.03435 -6.27365 6.40585c-1.10254,1.12398 -3.00334,0.666365 -3.4763,-0.832281l-4.52637 -14.3686 -12.133 -3.58369c-1.59377,-0.469898 -1.68583,-2.68696 -0.14124,-3.29187l47.7456 -18.6032zm-5.98506 8.64747c0.531177,-0.469898 -0.0860717,-1.29895 -0.687927,-0.924345l-26.1883 16.2416c-0.460616,0.285593 -0.672416,0.847556 -0.509791,1.36651l3.57136 15.6828c0.0707374,0.239591 0.414495,0.205749 0.44534,-0.0429477l0.798381 -11.9516c0.0306098,-0.294817 0.171908,-0.565018 0.393168,-0.761543l22.1778 -19.6105z"></path> <path id="_102966064" fill="#9EC2E5" d="M61.6799 31.5075c0.601855,-0.374603 1.2191,0.454447 0.687927,0.924345l-22.1776 19.6105c-0.221025,0.196467 -0.362323,0.466667 -0.39311,0.761484l-0.798381 11.9517c-0.0306098,0.248697 -0.374603,0.28248 -0.44534,0.0428889l-3.57136 -15.6828c-0.16286,-0.518898 0.0491167,-1.08092 0.509791,-1.36645l26.1881 -16.2416z"></path> <path id="_102966016" fill="white" d="M38.6824 64.9612c-0.577356,-0.205749 -1.06564,-0.666365 -1.27439,-1.32973l-4.52637 -14.3686 -12.133 -3.58369c-1.59377,-0.469898 -1.68583,-2.68696 -0.141299,-3.29187l47.7454 -18.6031c1.17304,-0.457619 2.37382,0.0429477 2.96645,0.970465 -0.11063,-0.168853 -0.242587,-0.325427 -0.389937,-0.463671l-32.3914 26.443 0 1.15771 -0.178136 -0.129019 0.178136 7.2903 0 5.84688c0.0461203,0.021562 0.0951195,0.0398926 0.144295,0.0552269l5.8752e-005 0.00605145 0.000176256 0z"></path> <g> <path id="_102965968" fill="#D1D1D1" d="M71.703 25.9216c0.00922406,0.208805 -0.00605145,0.42983 -0.0522305,0.654145l-8.15313 38.9721c-0.380889,1.82713 -2.52739,2.65007 -4.03209,1.54459l-12.3079 -9.03435 -8.61991 -6.16626 0 -1.15771 32.3914 -26.4432c0.14735,0.138243 0.279483,0.294759 0.389937,0.463671 0.021562,0.0368375 0.0429477,0.0705024 0.0645097,0.104402 0.0183306,0.0368375 0.0398926,0.0737337 0.0583995,0.107399 0.0183306,0.0368375 0.0368962,0.0737337 0.0522305,0.110571 0.0183306,0.0399513 0.0338411,0.0767888 0.0491167,0.11674 0.0123379,0.0338411 0.0276722,0.0705024 0.0399513,0.11063 0.0398926,0.119678 0.0705024,0.242587 0.0921231,0.371548 0.0123379,0.0798439 0.021562,0.159805 0.0276134,0.245642z"></path> <path id="_102965920" fill="#D1D1D1" d="M47.1577 58.0581l-6.27371 6.40585c-0.0521718,0.0521718 -0.107399,0.104402 -0.162802,0.150523 -0.0552269,0.0461203 -0.11063,0.0860129 -0.168853,0.125905 -0.0030551,0.0030551 -0.0030551,0.0030551 -0.0030551,0.0030551 -0.116681,0.0767888 -0.236359,0.141299 -0.362323,0.19347 -0.0645097,0.0245583 -0.125964,0.0491754 -0.190474,0.0644509 -0.267145,0.0798439 -0.540459,0.101406 -0.81066,0.0737925 -0.0705024,-0.00605145 -0.141299,-0.0183306 -0.208746,-0.0306098 -0.00928281,0 -0.0183306,-0.0030551 -0.0276722,-0.00605145 -0.0674473,-0.0183306 -0.135188,-0.0368962 -0.202694,-0.0583995 -0.021562,-0.00605145 -0.0429477,-0.0123379 -0.0645097,-0.0246171l-0.144295 -5.90205 0 -7.16134 8.6198 6.16602z"></path> </g> <g> <path id="_102965848" fill="#DADDE0" d="M40.7212 64.6143c-0.0552269,0.0461203 -0.11063,0.089068 -0.168853,0.128961l0 -0.00299635c0.0583995,-0.0399513 0.113626,-0.0798439 0.168853,-0.125964z"></path> <path id="_102965800" fill="#DADDE0" d="M40.5524 64.7402l0 0.00299635c0,0 0,-0.00299635 -0.0030551,0 0,0 0,0 0.0030551,-0.00299635z"></path> <path id="_102965752" fill="#DADDE0" d="M40.1871 64.9369c0.125905,-0.0522305 0.245642,-0.11674 0.362323,-0.19347 -0.116681,0.0765538 -0.239591,0.141064 -0.362323,0.19347z"></path> <path id="_102965704" fill="#DADDE0" d="M39.1859 65.0749c0.2702,0.0276134 0.543456,0.00605145 0.81066,-0.0737337 -0.193412,0.0614546 -0.39311,0.089068 -0.592631,0.089068 -0.0614546,0 -0.122909,-0.0030551 -0.181191,-0.00928281 -0.0122792,0.000176256 -0.0245583,0.000176256 -0.0368375,-0.00605145z"></path> </g> <g> <path id="_102965632" fill="white" d="M39.404 65.0902c-0.0614546,0 -0.122909,-0.0030551 -0.181191,-0.00928281 0.058282,0.00622771 0.119737,0.00928281 0.181191,0.00928281z"></path> <path id="_102965584" fill="white" d="M39.1859 65.0749c0.0122792,0.00605145 0.0245583,0.00605145 0.0368375,0.00605145 -0.0644509,-0.0030551 -0.122909,-0.0122792 -0.184187,-0.0246171 0.0489992,0.00945907 0.0981746,0.0155693 0.14735,0.0185656z"></path> </g> <g> <path id="_102965512" fill="#DADDE0" d="M39.1859 65.0749c-0.0491754,-0.0030551 -0.0983508,-0.00922406 -0.14735,-0.0183306 -0.0215032,-0.0030551 -0.0428889,-0.00605145 -0.0614546,-0.0122792 0.067506,0.0122792 0.138067,0.0245583 0.208805,0.0306098z"></path> <path id="_102965464" fill="#DADDE0" d="M38.7468 64.9798c0.0674473,0.021562 0.135188,0.0398926 0.202694,0.0583995 -0.0276134,-0.0059927 -0.0551681,-0.0122792 -0.0827815,-0.0183306 -0.0123379,-0.00299635 -0.0246171,-0.0059927 -0.0338411,-0.0122792 -0.0277897,-0.00622771 -0.0584582,-0.0155105 -0.0860717,-0.0277897z"></path> </g> <g> <path id="_102965392" fill="white" d="M38.8666 65.0196c0.0276134,0.00605145 0.0551681,0.0123379 0.0827815,0.0183306 -0.0276134,-0.00299635 -0.0552269,-0.00904781 -0.0827815,-0.0183306z"></path> <path id="_102965344" fill="white" d="M38.7468 64.9798c0.0276134,0.0122792 0.0583995,0.021562 0.0860129,0.0276134 -0.0461203,-0.00922406 -0.0921231,-0.0245583 -0.138243,-0.0428889 0.0183894,0.00605145 0.0337236,0.0122204 0.0522305,0.0152755z"></path> </g> <path id="_102965272" fill="#DADDE0" d="M38.7468 64.9798c-0.0183306,-0.0030551 -0.0338411,-0.00922406 -0.0522305,-0.0153343 -0.0030551,0.0030551 -0.00922406,0 -0.0122792,-0.0030551l0 -0.0059927c0.0213857,0.0121029 0.0429477,0.0181544 0.0645097,0.0243821z"></path> <path id="_102965224" fill="#D1D1D1" d="M38.5378 59.0531l0.144295 5.90211c-0.0491754,-0.0153343 -0.0983508,-0.0338411 -0.144295,-0.0552269l0 -5.84688z"></path> <polygon id="_102965176" fill="#DADDE0" points="38.5378,51.8918 38.5378,59.0531 38.3598,51.7628 "></polygon> <path id="_102965128" fill="#ADBCC9" d="M62.3676 32.4318l-22.1776 19.6105c-0.221084,0.196467 -0.362382,0.466667 -0.393168,0.761484l-0.796971 11.9527c-0.0306098,0.248697 -0.374603,0.282538 -0.448336,0.0429477l-3.56977 -15.6838c-0.16286,-0.518898 0.0491167,-1.08086 0.509791,-1.36645l26.1883 -16.2416c0.601855,-0.374779 1.2191,0.454447 0.687751,0.924169z"></path> </g> </g> </svg> 