<?xml version="1.0" encoding="UTF-8"?> <!-- Creator: CorelDRAW --> <svg xmlns="http://www.w3.org/2000/svg" xmlns:xlink="http://www.w3.org/1999/xlink" xml:space="preserve" width="152.835mm" height="152.835mm" shape-rendering="geometricPrecision" text-rendering="geometricPrecision" image-rendering="optimizeQuality" fill-rule="evenodd" clip-rule="evenodd" viewBox="0 0 38.49 38.49"> <defs> <linearGradient id="id0" gradientUnits="userSpaceOnUse" x1="15.8213" y1="20.892" x2="12.2516" y2="28.8248"> <stop offset="0" stop-color="#37AEE2"></stop> <stop offset="1" stop-color="#37AEE2"></stop> </linearGradient> </defs> <g id="Слой_x0020_1"> <metadata id="CorelCorpID_0Corel-Layer"></metadata> <g id="_103053400"> <path id="_103027088" fill="#606062" fill-rule="nonzero" d="M19.1633 0l0.000100736 0 0 0.000906626c5.31403,2.5184e-005 10.1344,2.15422 13.6314,5.63652 3.49703,3.48227 5.6716,8.29343 5.69419,13.6074l0.000906626 0 0 0.000176288 0 7.55521e-005 -0.000906626 0c0.0225145,5.31403 -2.11125,10.1252 -5.57879,13.6075 -3.46749,3.48227 -8.26951,5.63642 -13.5835,5.63647l0 0.000906626 -0.000176288 0 -7.55521e-005 0 0 -0.000906626c-5.31403,-2.5184e-005 -10.1344,-2.15422 -13.6314,-5.63652 -3.49706,-3.48227 -5.67162,-8.29343 -5.69421,-13.6074l-0.000906626 0 0 -0.000176288 0 -7.55521e-005 0.000906626 0c-0.0225145,-5.31403 2.11125,-10.1252 5.57879,-13.6075 3.46752,-3.48227 8.26951,-5.63642 13.5835,-5.63647l0 -0.000906626 0.000176288 0z"></path> <path id="_103054336" fill="#4A4F57" d="M26.16 37.2385l-14.5543 -8.31089 -0.711877 -1.61566 2.14205 -2.15646 -2.22335 -3.02475 0.638239 -0.475928 2.58565 1.78784 2.55867 -2.07826 -2.40639 -1.37404 -0.463311 -1.91708 -3.205 -1.82705 -0.458576 -2.22937 3.47721 0 -0.103053 -3.70281 1.99845 0.526044 7.53819 4.30428 0.594721 -0.605374 -1.43574 -0.815661 1.35367 -1.52673 1.53028 0.873786 3.1368 -1.44519 10.2488 5.85204c0.0554804,0.582129 0.0853739,1.17161 0.0879175,1.76757l0.000906626 0 0 0.000176288 0 7.55521e-005 -0.000906626 0c0.0225145,5.31403 -2.11125,10.1252 -5.57879,13.6075 -1.89593,1.90401 -4.1908,3.411 -6.75023,4.3859z"></path> <polygon id="_102901408" fill="#2C763C" points="20.5961,24.361 21.1957,24.8269 21.1457,24.8295 21.0971,24.837 21.0501,24.8492 21.0049,24.8659 20.9619,24.8867 20.9213,24.9115 20.8834,24.94 20.8483,24.9719 20.8164,25.0069 20.7879,25.0449 20.7632,25.0855 20.7423,25.1285 20.7256,25.1736 20.7134,25.2207 20.7059,25.2693 20.7033,25.3193 20.7059,25.3693 20.7134,25.4179 20.7256,25.4649 20.7423,25.5101 20.7632,25.5531 20.7879,25.5937 20.8164,25.6316 20.8483,25.6667 20.8834,25.6986 20.2806,25.2415 20.2452,25.2093 20.213,25.1739 20.1842,25.1356 20.1592,25.0945 20.1381,25.0511 20.1213,25.0055 20.1089,24.958 20.1013,24.9089 20.0987,24.8584 20.1013,24.8079 20.1089,24.7588 20.1213,24.7113 20.1381,24.6657 20.1592,24.6222 20.1842,24.5812 20.213,24.5429 20.2452,24.5075 20.2806,24.4753 20.319,24.4465 20.36,24.4215 20.4034,24.4004 20.449,24.3835 20.4965,24.3712 20.5456,24.3636 "></polygon> <polygon id="_102901360" fill="#2C763C" points="28.6265,24.4753 29.1458,24.94 29.1078,24.9115 29.0672,24.8867 29.0242,24.8659 28.9791,24.8492 28.9321,24.837 28.8834,24.8295 28.8334,24.8269 21.1957,24.8269 20.5961,24.361 28.311,24.361 28.3615,24.3636 28.4106,24.3712 28.4581,24.3835 28.5037,24.4004 28.5471,24.4215 28.5881,24.4465 "></polygon> <polygon id="_102901312" fill="#2C763C" points="28.9832,24.1182 29.499,24.5865 29.5334,24.6193 29.5663,24.6538 29.5975,24.6898 29.627,24.7273 29.6547,24.7662 29.6805,24.8064 29.7045,24.8479 29.7264,24.8906 29.7463,24.9345 29.7641,24.9794 29.7798,25.0254 29.7932,25.0724 29.8043,25.1202 29.813,25.1689 29.8194,25.2183 29.8232,25.2685 29.8245,25.3193 29.3121,24.8584 29.3107,24.8071 29.3069,24.7564 29.3005,24.7065 29.2916,24.6573 29.2804,24.609 29.2669,24.5615 29.2511,24.5151 29.2331,24.4697 29.213,24.4254 29.1908,24.3822 29.1666,24.3403 29.1405,24.2997 29.1125,24.2604 29.0828,24.2226 29.0512,24.1862 29.018,24.1514 "></polygon> <path id="_102901264" fill="#2C763C" d="M29.8245 25.3193l0 0zm-0.512445 -0.460893l0 0z"></path> <polygon id="_102901216" fill="#2C763C" points="29.3121,24.8584 29.8245,25.3193 29.8232,25.3701 29.8194,25.4202 29.813,25.4697 29.8043,25.5184 29.7932,25.5662 29.7798,25.6132 29.7641,25.6591 29.7463,25.7041 29.7264,25.748 29.7045,25.7907 29.6805,25.8322 29.6547,25.8724 29.627,25.9113 29.5975,25.9488 29.5663,25.9847 29.5334,26.0192 29.499,26.0521 29.4629,26.0833 29.4255,26.1128 29.3866,26.1405 29.3464,26.1663 29.3049,26.1903 29.2622,26.2122 29.2183,26.2322 29.1733,26.25 29.1273,26.2656 29.0804,26.279 29.0325,26.2901 28.9839,26.2989 28.9344,26.3052 28.8843,26.309 28.8334,26.3103 21.1957,26.3103 21.1449,26.309 21.0948,26.3052 21.0453,26.2989 20.9966,26.2901 20.9488,26.279 20.9018,26.2656 20.8558,26.25 20.8109,26.2322 20.767,26.2122 20.7243,26.1903 20.6828,26.1663 20.6426,26.1405 20.6037,26.1128 19.9981,25.6599 20.0374,25.6879 20.078,25.714 20.1199,25.7382 20.1631,25.7604 20.2074,25.7805 20.2528,25.7985 20.2993,25.8142 20.3467,25.8278 20.395,25.839 20.4442,25.8479 20.4941,25.8543 20.5448,25.8581 20.5961,25.8595 28.311,25.8595 28.3623,25.8581 28.413,25.8543 28.4629,25.8479 28.5121,25.839 28.5604,25.8278 28.6078,25.8142 28.6543,25.7985 28.6997,25.7805 28.744,25.7604 28.7872,25.7382 28.8291,25.714 28.8697,25.6879 28.909,25.6599 28.9468,25.6301 28.9832,25.5986 29.018,25.5654 29.0512,25.5306 29.0828,25.4942 29.1125,25.4564 29.1405,25.4171 29.1666,25.3765 29.1908,25.3345 29.213,25.2914 29.2331,25.2471 29.2511,25.2017 29.2669,25.1552 29.2804,25.1078 29.2916,25.0595 29.3005,25.0103 29.3069,24.9604 29.3107,24.9097 "></polygon> <path id="_102901168" fill="#2C763C" d="M20.2047 25.3193l0 0zm-0.609605 -0.460893l0 0z"></path> <path id="_102901120" fill="#2076AF" d="M11.3005 21.9182l0 0zm-0.699562 -0.495244l0 0z"></path> <polygon id="_102901072" fill="#2076AF" points="11.901,21.3237 12.5876,21.8199 12.6271,21.8504 12.6652,21.8831 12.7021,21.9182 12.0167,21.4229 11.9794,21.3875 11.9409,21.3545 "></polygon> <polygon id="_102901024" fill="#2076AF" points="12.0167,21.4229 12.7021,21.9182 14.7016,23.9177 14.0364,23.4427 "></polygon> <polygon id="_102900976" fill="#2076AF" points="17.3961,21.3545 18.0277,21.8504 18.0659,21.8831 18.1027,21.9182 17.4719,21.4229 17.4347,21.3875 "></polygon> <path id="_102900928" fill="#2076AF" d="M18.1027 21.9182l0 0zm-0.630835 -0.495244l0 0z"></path> <polygon id="_102900880" fill="#2076AF" points="17.4719,21.4229 18.1027,21.9182 18.1377,21.955 18.1705,21.9932 18.201,22.0326 18.2292,22.0732 18.2552,22.1149 18.2789,22.1576 18.3004,22.2012 18.3196,22.2455 18.3365,22.2906 18.3512,22.3364 18.3636,22.3826 18.3738,22.4294 18.3817,22.4764 18.3873,22.5238 18.3907,22.5713 18.3919,22.6189 18.3907,22.6665 18.3873,22.7141 18.3817,22.7614 18.3738,22.8085 18.3636,22.8552 18.3512,22.9015 18.3365,22.9472 18.3196,22.9923 18.3004,23.0367 18.2789,23.0803 18.2552,23.123 18.2292,23.1646 18.201,23.2053 18.1705,23.2447 18.1377,23.2829 18.1027,23.3197 17.4719,22.8386 17.5073,22.8014 17.5404,22.7628 17.5712,22.723 17.5997,22.682 17.6259,22.6399 17.6499,22.5968 17.6715,22.5527 17.6909,22.5079 17.708,22.4624 17.7229,22.4162 17.7354,22.3694 17.7457,22.3222 17.7537,22.2747 17.7594,22.2269 17.7628,22.1789 17.7639,22.1308 17.7628,22.0827 17.7594,22.0347 17.7537,21.9868 17.7457,21.9393 17.7354,21.8921 17.7229,21.8453 17.708,21.7992 17.6909,21.7536 17.6715,21.7088 17.6499,21.6648 17.6259,21.6217 17.5997,21.5796 17.5712,21.5385 17.5404,21.4987 17.5073,21.4601 "></polygon> <polygon id="_102900832" fill="#2076AF" points="17.4719,22.8386 18.1027,23.3197 16.1032,25.3193 15.4521,24.8584 "></polygon> <polygon id="_102900784" fill="#2076AF" points="15.4521,24.8584 16.1032,25.3193 18.1027,27.3188 18.1377,27.3557 18.1705,27.3939 18.201,27.4333 18.2292,27.4739 18.2552,27.5156 18.2789,27.5583 18.3004,27.6019 18.3196,27.6462 18.3365,27.6913 18.3512,27.737 18.3636,27.7833 18.3738,27.8301 18.3817,27.8771 18.3873,27.9245 18.3907,27.972 18.3918,28.0196 18.3907,28.0672 18.3873,28.1148 18.3817,28.1621 18.3738,28.2092 18.3636,28.2559 18.3512,28.3022 18.3365,28.3479 18.3196,28.393 18.3004,28.4374 18.2789,28.481 18.2552,28.5236 18.2292,28.5653 18.201,28.6059 18.1705,28.6454 18.1377,28.6836 18.1027,28.7204 17.4719,28.2939 17.5073,28.2566 17.5404,28.2181 17.5711,28.1782 17.5997,28.1372 17.6259,28.0951 17.6499,28.052 17.6715,28.008 17.6909,27.9632 17.708,27.9176 17.7228,27.8714 17.7354,27.8247 17.7457,27.7775 17.7536,27.7299 17.7594,27.6821 17.7628,27.6341 17.7639,27.586 17.7628,27.5379 17.7594,27.4899 17.7536,27.4421 17.7457,27.3945 17.7354,27.3473 17.7228,27.3006 17.708,27.2544 17.6909,27.2088 17.6715,27.164 17.6499,27.12 17.6259,27.0769 17.5997,27.0348 17.5711,26.9938 17.5404,26.9539 17.5073,26.9153 17.4719,26.8781 "></polygon> <path id="_102900736" fill="#2076AF" d="M18.1027 28.7204l0 0zm-0.630835 -0.426542l0 0z"></path> <polygon id="_102900688" fill="#2076AF" points="17.4719,28.2939 18.1027,28.7204 18.0659,28.7554 18.0277,28.7882 17.9883,28.8187 17.9477,28.8469 17.906,28.8729 17.8633,28.8966 17.8197,28.9181 17.7754,28.9372 17.7303,28.9542 17.6845,28.9689 17.6383,28.9813 17.5915,28.9914 17.5445,28.9993 17.4971,29.005 17.4496,29.0084 17.402,29.0095 17.3544,29.0084 17.3069,29.005 17.2595,28.9993 17.2124,28.9914 17.1657,28.9813 17.1194,28.9689 17.0737,28.9542 17.0286,28.9372 16.9842,28.9181 16.9407,28.8966 16.898,28.8729 16.8563,28.8469 16.2128,28.4216 16.2549,28.4479 16.2981,28.4718 16.3421,28.4935 16.3869,28.5129 16.4325,28.53 16.4786,28.5448 16.5254,28.5574 16.5726,28.5676 16.6201,28.5756 16.668,28.5813 16.716,28.5847 16.7641,28.5859 16.8122,28.5847 16.8602,28.5813 16.908,28.5756 16.9555,28.5676 17.0027,28.5574 17.0495,28.5448 17.0957,28.53 17.1412,28.5129 17.186,28.4935 17.23,28.4718 17.2732,28.4479 17.3153,28.4216 17.3563,28.3931 17.3961,28.3623 17.4347,28.3292 "></polygon> <path id="_102900640" fill="#2076AF" d="M11.3005 28.7204l0 0zm-0.699562 -0.426542l0 0z"></path> <polygon id="_102900592" fill="#2076AF" points="14.0364,26.2741 14.7016,26.7208 12.7021,28.7204 12.6652,28.7554 12.6271,28.7882 12.5876,28.8187 12.547,28.8469 12.5053,28.8729 12.4627,28.8966 12.4191,28.918 12.3747,28.9372 12.3296,28.9542 12.2838,28.9688 12.2376,28.9813 12.1909,28.9914 12.1438,28.9993 12.0964,29.005 12.0489,29.0084 12.0013,29.0095 11.9537,29.0084 11.9062,29.005 11.8588,28.9993 11.8117,28.9914 11.765,28.9813 11.7187,28.9688 11.673,28.9542 11.6279,28.9372 11.5835,28.918 11.54,28.8966 11.4973,28.8729 10.7997,28.4479 10.8428,28.4718 10.8868,28.4935 10.9317,28.5129 10.9772,28.53 11.0234,28.5448 11.0701,28.5574 11.1173,28.5676 11.1649,28.5756 11.2127,28.5813 11.2607,28.5847 11.3088,28.5859 11.3569,28.5847 11.4049,28.5813 11.4527,28.5756 11.5003,28.5676 11.5475,28.5574 11.5942,28.5448 11.6404,28.53 11.686,28.5129 11.7308,28.4935 11.7748,28.4718 11.8179,28.4479 11.86,28.4216 11.901,28.3931 11.9409,28.3623 11.9795,28.3292 12.0167,28.2939 "></polygon> <polygon id="_102900544" fill="#2076AF" points="10.9571,27.2343 11.6531,27.6714 11.6196,27.7086 11.5905,27.7483 11.5659,27.7902 11.5457,27.8339 11.5301,27.8791 11.5189,27.9253 11.5122,27.9723 11.51,28.0196 11.5122,28.067 11.5189,28.1139 11.5301,28.1602 11.5457,28.2053 11.5659,28.249 11.5905,28.2909 11.6195,28.3306 11.6531,28.3678 10.9571,27.9377 10.9232,27.9001 10.8938,27.86 10.869,27.8177 10.8487,27.7736 10.8328,27.728 10.8216,27.6813 10.8148,27.6338 10.8125,27.586 10.8148,27.5382 10.8216,27.4907 10.8329,27.444 10.8487,27.3984 10.869,27.3543 10.8938,27.312 10.9232,27.2718 "></polygon> <polygon id="_102900496" fill="#2076AF" points="10.9571,27.9377 11.6531,28.3678 11.6903,28.4013 11.7299,28.4304 11.0347,28.001 10.9946,27.9716 "></polygon> <polygon id="_102900448" fill="#2076AF" points="14.0364,25.5618 14.7016,26.0157 17.0538,28.3678 17.0909,28.4014 17.1307,28.4304 16.49,28.001 16.4499,27.9716 16.4123,27.9377 "></polygon> <polygon id="_102900400" fill="#2076AF" points="17.0782,21.7452 17.713,22.2372 17.6733,22.2081 17.6314,22.1836 17.5877,22.1634 17.5425,22.1478 17.4963,22.1366 17.4493,22.1298 17.402,22.1276 17.3546,22.1298 17.3077,22.1366 17.2614,22.1478 17.2163,22.1634 17.1726,22.1835 17.1307,22.2081 17.0909,22.2372 17.0538,22.2708 16.4123,21.7791 16.4499,21.7452 16.49,21.7158 16.5323,21.691 16.5765,21.6706 16.6221,21.6548 16.6688,21.6435 16.7162,21.6367 16.7641,21.6345 16.8119,21.6367 16.8593,21.6435 16.906,21.6548 16.9517,21.6706 16.9958,21.691 17.0381,21.7158 "></polygon> <polygon id="_102900352" fill="#2076AF" points="16.4123,21.7791 17.0538,22.2708 14.7016,24.6229 14.0364,24.155 "></polygon> <polygon id="_102900304" fill="#2076AF" points="11.5828,21.7158 12.2726,22.2081 12.2307,22.1835 12.187,22.1634 12.1418,22.1478 12.0956,22.1366 12.0486,22.1298 12.0013,22.1276 11.954,22.1298 11.907,22.1366 11.8607,22.1477 11.8156,22.1634 11.7719,22.1835 11.73,22.2081 11.6903,22.2372 11.6531,22.2708 10.9571,21.7791 10.9947,21.7452 11.0348,21.7158 11.0771,21.691 11.1212,21.6706 11.1668,21.6548 11.2135,21.6435 11.261,21.6367 11.3088,21.6345 11.3566,21.6367 11.4041,21.6435 11.4508,21.6548 11.4964,21.6706 11.5405,21.691 "></polygon> <polygon id="_102900256" fill="#2076AF" points="10.9571,21.7791 11.6531,22.2708 11.6196,22.3079 11.5905,22.3476 11.5659,22.3895 11.5458,22.4332 11.5301,22.4784 11.5189,22.5246 11.5122,22.5716 11.51,22.6189 11.5122,22.6663 11.5189,22.7132 11.5301,22.7595 11.5457,22.8047 11.5659,22.8483 11.5905,22.8902 11.6195,22.9299 11.6531,22.9671 10.9571,22.4825 10.9232,22.4449 10.8938,22.4048 10.869,22.3625 10.8487,22.3184 10.8329,22.2727 10.8216,22.226 10.8148,22.1786 10.8125,22.1308 10.8148,22.083 10.8216,22.0355 10.8329,21.9888 10.8487,21.9432 10.869,21.899 10.8939,21.8567 10.9233,21.8166 "></polygon> <polygon id="_102900208" fill="#2076AF" points="10.9571,22.4825 11.6531,22.9671 14.0052,25.3193 13.333,24.8584 "></polygon> <polygon id="_102900160" fill="#2076AF" points="13.333,24.8584 14.0052,25.3193 11.6531,27.6714 10.9571,27.2343 "></polygon> <path id="_102900112" fill="#9E850E" d="M28.4157 11.9233l0 0zm-0.526674 -0.596207l0 0z"></path> <path id="_102900064" fill="#9E850E" d="M21.6134 18.7256l0 0zm-0.595376 -0.527505l0 0z"></path> <polygon id="_102900016" fill="#9E850E" points="27.9244,11.3643 28.4507,11.9602 28.4835,11.9983 28.514,12.0378 28.5422,12.0784 28.5682,12.1201 28.5919,12.1628 28.6133,12.2063 28.6325,12.2507 28.6495,12.2958 28.6641,12.3415 28.6766,12.3878 28.6867,12.4345 28.6946,12.4816 28.7003,12.5289 28.7037,12.5765 28.7048,12.6241 28.7037,12.6717 28.7003,12.7192 28.6946,12.7666 28.6867,12.8136 28.6766,12.8604 28.6641,12.9066 28.6495,12.9524 28.6325,12.9975 28.6133,13.0418 28.5919,13.0854 28.5682,13.1281 28.5422,13.1698 28.514,13.2104 28.4835,13.2499 28.4507,13.288 28.4157,13.3249 23.015,18.7256 22.9782,18.7606 22.94,18.7933 22.9006,18.8238 22.8599,18.852 22.8183,18.878 22.7756,18.9017 22.732,18.9232 22.6876,18.9424 22.6425,18.9593 22.5968,18.974 22.5505,18.9864 22.5038,18.9966 22.4567,19.0045 22.4094,19.0101 22.3618,19.0135 22.3142,19.0147 22.2666,19.0135 22.2191,19.0101 22.1717,19.0045 22.1247,18.9966 22.0779,18.9864 22.0317,18.974 21.9859,18.9593 21.9408,18.9424 21.8965,18.9232 21.8529,18.9017 21.8102,18.878 21.7685,18.852 21.7279,18.8238 21.6885,18.7933 21.6503,18.7606 21.0553,18.2334 21.0939,18.2665 21.1337,18.2973 21.1747,18.3258 21.2168,18.3521 21.2599,18.376 21.3039,18.3977 21.3488,18.4171 21.3943,18.4342 21.4405,18.449 21.4873,18.4616 21.5344,18.4718 21.582,18.4798 21.6298,18.4855 21.6778,18.4889 21.7259,18.4901 21.774,18.4889 21.822,18.4855 21.8698,18.4798 21.9174,18.4718 21.9646,18.4616 22.0113,18.449 22.0575,18.4342 22.1031,18.4171 22.1479,18.3977 22.1919,18.376 22.235,18.3521 22.2771,18.3258 22.3182,18.2973 22.358,18.2665 22.3966,18.2334 22.4338,18.1981 27.889,12.7428 27.9244,12.7056 27.9575,12.667 27.9883,12.6272 28.0168,12.5862 28.043,12.5441 28.067,12.501 28.0886,12.4569 28.108,12.4121 28.1252,12.3665 28.14,12.3204 28.1525,12.2736 28.1628,12.2264 28.1708,12.1789 28.1765,12.1311 28.1799,12.0831 28.181,12.035 28.1799,11.9868 28.1765,11.9388 28.1708,11.891 28.1628,11.8435 28.1525,11.7963 28.14,11.7495 28.1252,11.7034 28.108,11.6578 28.0886,11.613 28.067,11.569 28.043,11.5259 28.0168,11.4837 27.9883,11.4427 27.9575,11.4029 "></polygon> <polygon id="_102899968" fill="#9E850E" points="27.6018,16.2648 28.1314,16.8116 28.1652,16.8471 28.1974,16.8842 28.2277,16.9229 28.2562,16.9629 28.2828,17.0044 28.3074,17.0472 28.33,17.0913 28.3505,17.1366 28.3688,17.183 28.3848,17.2305 28.3986,17.279 28.41,17.3284 28.4191,17.3788 28.4255,17.4299 28.4295,17.4818 28.4308,17.5344 28.4295,17.587 28.4255,17.6389 28.4191,17.6901 28.41,17.7404 28.3986,17.7899 28.3848,17.8384 28.3688,17.8859 28.3505,17.9323 28.33,17.9776 28.3074,18.0216 28.2828,18.0644 28.2562,18.1059 28.2277,18.146 28.1974,18.1846 28.1652,18.2217 28.1314,18.2572 28.0959,18.2911 28.0588,18.3232 28.0202,18.3536 27.9801,18.3821 27.9386,18.4086 27.8958,18.4333 27.8517,18.4558 27.8065,18.4763 27.76,18.4946 27.7125,18.5107 27.664,18.5244 27.6146,18.5359 27.5643,18.5448 27.5131,18.5514 27.4612,18.5553 27.4086,18.5567 27.356,18.5553 27.3041,18.5514 27.2529,18.5448 27.2026,18.5359 27.1532,18.5244 27.1047,18.5107 27.0572,18.4946 27.0108,18.4763 26.9655,18.4558 26.9214,18.4333 26.8786,18.4086 26.8371,18.3821 26.797,18.3536 26.7584,18.3232 26.7213,18.2911 26.6858,18.2572 26.1417,17.725 26.1775,17.7592 26.215,17.7916 26.254,17.8223 26.2945,17.8511 26.3364,17.8779 26.3796,17.9028 26.4241,17.9256 26.4699,17.9463 26.5168,17.9648 26.5647,17.981 26.6137,17.9949 26.6637,18.0065 26.7145,18.0155 26.7662,18.0221 26.8186,18.0261 26.8718,18.0274 26.9249,18.0261 26.9773,18.0221 27.029,18.0155 27.0798,18.0065 27.1298,17.9949 27.1788,17.981 27.2267,17.9648 27.2736,17.9463 27.3194,17.9256 27.3639,17.9028 27.4071,17.8779 27.449,17.8511 27.4895,17.8223 27.5285,17.7916 27.566,17.7592 27.6018,17.725 27.636,17.6891 27.6685,17.6516 27.6991,17.6126 27.7279,17.5722 27.7548,17.5303 27.7797,17.487 27.8025,17.4425 27.8232,17.3968 27.8416,17.3499 27.8579,17.3019 27.8718,17.2529 27.8833,17.203 27.8924,17.1521 27.899,17.1004 27.903,17.048 27.9043,16.9949 27.903,16.9418 27.899,16.8894 27.8924,16.8377 27.8833,16.7868 27.8718,16.7369 27.8579,16.6879 27.8416,16.6399 27.8232,16.593 27.8025,16.5473 27.7797,16.5028 27.7548,16.4595 27.7279,16.4176 27.6991,16.3772 27.6685,16.3381 27.636,16.3007 "></polygon> <polygon id="_102899920" fill="#9E850E" points="22.9088,11.6032 23.4853,12.1966 23.5191,12.2321 23.5512,12.2692 23.5816,12.3078 23.6101,12.3479 23.6367,12.3894 23.6613,12.4322 23.6839,12.4763 23.7044,12.5215 23.7227,12.568 23.7387,12.6154 23.7525,12.664 23.7639,12.7134 23.7729,12.7638 23.7794,12.8149 23.7834,12.8668 23.7847,12.9194 23.7834,12.972 23.7794,13.0239 23.7729,13.0751 23.7639,13.1254 23.7525,13.1748 23.7387,13.2234 23.7227,13.2709 23.7044,13.3172 23.6839,13.3626 23.6613,13.4066 23.6367,13.4494 23.6101,13.4909 23.5816,13.531 23.5512,13.5696 23.5191,13.6067 23.4853,13.6422 23.4498,13.676 23.4127,13.7082 23.374,13.7385 23.334,13.767 23.2925,13.7936 23.2497,13.8182 23.2056,13.8408 23.1604,13.8613 23.1139,13.8796 23.0664,13.8956 23.0179,13.9094 22.9685,13.9209 22.9181,13.9298 22.867,13.9363 22.8151,13.9403 22.7625,13.9416 22.7099,13.9403 22.658,13.9363 22.6068,13.9298 22.5565,13.9209 22.5071,13.9094 22.4585,13.8956 22.411,13.8796 22.3646,13.8613 22.3193,13.8408 22.2753,13.8182 22.2325,13.7936 22.191,13.767 22.1509,13.7385 22.1123,13.7082 22.0752,13.676 22.0397,13.6422 21.4486,13.0633 21.4845,13.0975 21.522,13.13 21.561,13.1607 21.6014,13.1894 21.6433,13.2163 21.6866,13.2412 21.7311,13.264 21.7768,13.2846 21.8237,13.3031 21.8717,13.3194 21.9207,13.3333 21.9706,13.3448 22.0215,13.3539 22.0732,13.3605 22.1256,13.3645 22.1787,13.3658 22.2318,13.3645 22.2843,13.3605 22.3359,13.3539 22.3868,13.3448 22.4367,13.3333 22.4857,13.3194 22.5337,13.3031 22.5806,13.2846 22.6263,13.264 22.6708,13.2412 22.7141,13.2163 22.756,13.1894 22.7964,13.1607 22.8355,13.13 22.8729,13.0975 22.9088,13.0633 22.943,13.0275 22.9754,12.99 23.0061,12.951 23.0349,12.9105 23.0617,12.8686 23.0866,12.8254 23.1094,12.7809 23.1301,12.7351 23.1486,12.6882 23.1648,12.6403 23.1787,12.5913 23.1903,12.5413 23.1994,12.4905 23.2059,12.4388 23.2099,12.3864 23.2113,12.3333 23.2099,12.2801 23.2059,12.2277 23.1994,12.176 23.1903,12.1252 23.1787,12.0752 23.1648,12.0262 23.1486,11.9783 23.1301,11.9314 23.1094,11.8856 23.0866,11.8411 23.0617,11.7979 23.0349,11.756 23.0061,11.7155 22.9754,11.6765 22.943,11.639 "></polygon> <polygon id="_102899872" fill="#9E850E" points="21.3742,17.1385 21.9661,17.6766 21.9325,17.7138 21.9034,17.7535 21.8788,17.7954 21.8587,17.839 21.8431,17.8842 21.8319,17.9305 21.8252,17.9775 21.8229,18.0248 21.8252,18.0721 21.8319,18.1191 21.8431,18.1653 21.8587,18.2105 21.8788,18.2542 21.9034,18.2961 21.9325,18.3358 21.9661,18.373 22.0032,18.4065 21.4118,17.8758 21.3742,17.8419 21.3404,17.8044 21.311,17.7642 21.2861,17.7219 21.2658,17.6778 21.25,17.6322 21.2387,17.5855 21.2319,17.538 21.2297,17.4902 21.2319,17.4424 21.2387,17.3949 21.25,17.3482 21.2658,17.3026 21.2861,17.2585 21.311,17.2161 21.3404,17.176 "></polygon> <polygon id="_102882328" fill="#9E850E" points="27.5668,11.7208 28.0967,12.3131 28.0631,12.2759 28.0259,12.2424 27.9862,12.2133 27.9443,12.1887 27.9006,12.1686 27.8555,12.1529 27.8092,12.1417 27.7623,12.135 27.7149,12.1328 27.6676,12.135 27.6206,12.1417 27.5744,12.1529 27.5292,12.1686 27.4855,12.1887 27.4436,12.2133 27.4039,12.2424 27.3667,12.2759 21.9661,17.6766 21.3742,17.1385 26.8295,11.6833 26.867,11.6494 26.9071,11.62 26.9494,11.5952 26.9936,11.5748 27.0392,11.559 27.0859,11.5477 27.1334,11.541 27.1812,11.5387 27.229,11.541 27.2764,11.5477 27.3231,11.559 27.3688,11.5748 27.4129,11.5952 27.4552,11.62 27.4953,11.6494 27.5329,11.6833 "></polygon> <polygon id="_102882280" fill="#9E850E" points="26.8718,16.466 27.4086,17.0109 27.355,17.0135 27.3031,17.0215 27.2529,17.0344 27.2048,17.052 27.159,17.074 27.1158,17.1003 27.0755,17.1304 27.0383,17.1642 27.0045,17.2014 26.9744,17.2417 26.9482,17.2848 26.9261,17.3306 26.9086,17.3787 26.8957,17.4289 26.8877,17.4809 26.885,17.5344 26.8877,17.588 26.8957,17.64 26.9086,17.6902 26.9261,17.7383 26.9482,17.784 26.9744,17.8272 27.0045,17.8675 27.0383,17.9047 26.4978,17.3689 26.4636,17.3313 26.4332,17.2906 26.4067,17.247 26.3844,17.2008 26.3667,17.1522 26.3536,17.1015 26.3456,17.049 26.3429,16.9949 26.3456,16.9408 26.3536,16.8883 26.3667,16.8376 26.3844,16.789 26.4067,16.7428 26.4332,16.6992 26.4636,16.6585 26.4978,16.6209 26.5353,16.5868 26.576,16.5563 26.6196,16.5298 26.6659,16.5076 26.7145,16.4898 26.7651,16.4768 26.8177,16.4688 "></polygon> <polygon id="_102882232" fill="#9E850E" points="27.2457,16.6209 27.7788,17.1642 27.7417,17.1304 27.7014,17.1003 27.6582,17.074 27.6124,17.052 27.5643,17.0344 27.5141,17.0215 27.4621,17.0135 27.4086,17.0109 26.8718,16.466 26.9258,16.4688 26.9784,16.4768 27.0291,16.4898 27.0776,16.5076 27.1239,16.5298 27.1675,16.5563 27.2082,16.5868 "></polygon> <polygon id="_102882184" fill="#9E850E" points="22.1787,11.8044 22.7625,12.3958 22.7089,12.3985 22.6569,12.4065 22.6068,12.4194 22.5587,12.437 22.5129,12.459 22.4697,12.4852 22.4294,12.5154 22.3922,12.5492 22.3584,12.5863 22.3283,12.6266 22.3021,12.6698 22.28,12.7156 22.2624,12.7637 22.2495,12.8139 22.2416,12.8658 22.2389,12.9194 22.2416,12.973 22.2495,13.0249 22.2624,13.0751 22.28,13.1232 22.3021,13.169 22.3283,13.2122 22.3584,13.2525 22.3922,13.2896 21.8047,12.7072 21.7706,12.6697 21.7401,12.629 21.7137,12.5854 21.6914,12.5391 21.6736,12.4906 21.6606,12.4399 21.6526,12.3874 21.6498,12.3333 21.6526,12.2792 21.6606,12.2267 21.6736,12.176 21.6914,12.1274 21.7137,12.0811 21.7401,12.0375 21.7706,11.9968 21.8047,11.9593 21.8423,11.9251 21.883,11.8947 21.9266,11.8682 21.9728,11.8459 22.0214,11.8282 22.0721,11.8151 22.1246,11.8071 "></polygon> <polygon id="_102882136" fill="#9E850E" points="22.5527,11.9593 23.1327,12.5492 23.0956,12.5154 23.0553,12.4852 23.0121,12.459 22.9663,12.437 22.9182,12.4194 22.868,12.4065 22.816,12.3985 22.7625,12.3958 22.1787,11.8044 22.2328,11.8071 22.2853,11.8151 22.336,11.8282 22.3846,11.8459 22.4308,11.8682 22.4744,11.8947 22.5151,11.9251 "></polygon> <path id="_102882088" fill="#8C2E2E" d="M14.7016 10.5145l0 0zm-0.665211 -0.610436l0 0z"></path> <polygon id="_102882040" fill="#8C2E2E" points="14.3873,10.5542 15.049,11.1582 15.014,11.1263 14.976,11.0978 14.9354,11.073 14.8924,11.0521 14.8473,11.0355 14.8003,11.0233 14.7517,11.0157 14.7016,11.0132 14.6516,11.0157 14.603,11.0233 14.556,11.0355 14.5108,11.0521 14.4678,11.073 14.4272,11.0978 14.3893,11.1263 14.3542,11.1582 14.3223,11.1932 14.2939,11.2312 14.2691,11.2718 14.2482,11.3148 14.2315,11.3599 14.2193,11.4069 14.2118,11.4556 14.2092,11.5056 14.2092,14.832 13.539,14.2652 13.539,10.9051 13.5416,10.8546 13.5492,10.8055 13.5616,10.758 13.5784,10.7124 13.5995,10.669 13.6245,10.628 13.6533,10.5896 13.6855,10.5542 13.7209,10.522 13.7593,10.4933 13.8003,10.4682 13.8437,10.4471 13.8893,10.4303 13.9368,10.418 13.9859,10.4104 14.0364,10.4078 14.0869,10.4104 14.1361,10.418 14.1836,10.4303 14.2291,10.4471 14.2726,10.4682 14.3136,10.4933 14.3519,10.522 "></polygon> <polygon id="_102881992" fill="#8C2E2E" points="18.5661,14.0224 19.186,14.5916 19.2204,14.6245 19.2533,14.659 19.2845,14.695 19.314,14.7324 19.3417,14.7713 19.3676,14.8115 19.3915,14.853 19.4134,14.8958 19.4334,14.9396 19.4512,14.9846 19.4668,15.0306 19.4802,15.0775 19.4913,15.1254 19.5001,15.174 19.5064,15.2235 19.5103,15.2736 19.5115,15.3244 18.8949,14.7626 18.8936,14.7113 18.8897,14.6606 18.8833,14.6106 18.8745,14.5615 18.8633,14.5132 18.8498,14.4657 18.8339,14.4193 18.816,14.3739 18.7958,14.3296 18.7737,14.2864 18.7495,14.2445 18.7234,14.2039 18.6954,14.1646 18.6656,14.1268 18.6341,14.0904 18.6009,14.0556 "></polygon> <path id="_102881944" fill="#8C2E2E" d="M19.5115 15.3244l0 0zm-0.616606 -0.561856l0 0z"></path> <polygon id="_102881896" fill="#8C2E2E" points="18.8949,14.7626 19.5115,15.3244 19.5103,15.3753 19.5064,15.4254 19.5001,15.4749 19.4913,15.5235 19.4802,15.5714 19.4668,15.6183 19.4512,15.6643 19.4334,15.7093 19.4134,15.7531 19.3915,15.7958 19.3676,15.8373 19.3417,15.8776 19.314,15.9164 19.2845,15.9539 19.2533,15.9899 19.2204,16.0244 19.186,16.0572 19.15,16.0884 19.1125,16.118 19.0736,16.1457 19.0334,16.1715 18.9919,16.1954 18.9492,16.2174 18.9053,16.2373 18.8604,16.2551 18.8144,16.2707 18.7674,16.2842 18.7196,16.2953 18.6709,16.304 18.6214,16.3103 18.5713,16.3142 18.5205,16.3155 15.6927,16.3155 15.0375,15.7636 17.8939,15.7636 17.9452,15.7623 17.9958,15.7585 18.0458,15.7521 18.095,15.7432 18.1433,15.732 18.1907,15.7184 18.2372,15.7027 18.2826,15.6847 18.3269,15.6645 18.37,15.6424 18.412,15.6182 18.4526,15.5921 18.4919,15.5641 18.5297,15.5343 18.5661,15.5028 18.6009,15.4696 18.6341,15.4348 18.6656,15.3984 18.6954,15.3606 18.7234,15.3213 18.7495,15.2807 18.7737,15.2387 18.7958,15.1956 18.816,15.1513 18.8339,15.1059 18.8498,15.0594 18.8633,15.012 18.8745,14.9637 18.8833,14.9145 18.8897,14.8646 18.8936,14.8139 "></polygon> <polygon id="_102881848" fill="#8C2E2E" points="15.0375,15.7636 15.6927,16.3155 15.6927,19.1433 15.6914,19.1941 15.6875,19.2443 15.6812,19.2937 15.6725,19.3424 15.6614,19.3902 15.6479,19.4372 15.6323,19.4832 15.6145,19.5281 15.5946,19.572 15.5726,19.6147 15.5487,19.6562 15.5228,19.6964 15.4951,19.7353 15.4656,19.7728 15.4344,19.8088 15.4016,19.8432 15.3671,19.8761 15.3311,19.9074 15.2936,19.9368 15.2548,19.9645 15.2145,19.9904 15.173,20.0143 15.1303,20.0362 15.0864,20.0562 15.0415,20.074 14.9955,20.0896 14.9486,20.103 14.9007,20.1141 14.852,20.1229 14.8026,20.1292 14.7524,20.1331 14.7016,20.1344 14.0364,19.6211 14.0878,19.6198 14.1384,19.6159 14.1884,19.6095 14.2375,19.6007 14.2858,19.5894 14.3333,19.5759 14.3797,19.5601 14.4251,19.5421 14.4694,19.522 14.5126,19.4998 14.5545,19.4757 14.5951,19.4495 14.6344,19.4216 14.6722,19.3918 14.7086,19.3603 14.7434,19.327 14.7766,19.2922 14.8082,19.2559 14.838,19.218 14.8659,19.1788 14.892,19.1381 14.9162,19.0962 14.9384,19.0531 14.9585,19.0087 14.9765,18.9633 14.9923,18.9169 15.0058,18.8694 15.0171,18.8211 15.0259,18.772 15.0323,18.722 15.0362,18.6713 15.0375,18.62 "></polygon> <path id="_102881800" fill="#8C2E2E" d="M14.7016 20.1344l0 0zm-0.665211 -0.513276l0 0z"></path> <polygon id="_102881752" fill="#8C2E2E" points="14.0364,19.6211 14.7016,20.1344 14.6508,20.1331 14.6007,20.1292 14.5512,20.1229 14.5025,20.1141 14.4547,20.103 14.4077,20.0896 14.3618,20.074 14.3168,20.0562 14.273,20.0362 14.2302,20.0143 14.1887,19.9904 14.1485,19.9645 14.1096,19.9368 13.4385,19.4216 13.4777,19.4495 13.5183,19.4757 13.5603,19.4998 13.6034,19.522 13.6477,19.5421 13.6931,19.5601 13.7396,19.5759 13.787,19.5894 13.8353,19.6007 13.8845,19.6095 13.9345,19.6159 13.9851,19.6198 "></polygon> <polygon id="_102881704" fill="#8C2E2E" points="13.0354,15.7636 13.7106,16.3155 10.8828,16.3155 10.832,16.3142 10.7818,16.3103 10.7324,16.304 10.6837,16.2953 10.6358,16.2842 10.5889,16.2707 10.5429,16.2551 10.4979,16.2373 10.454,16.2174 10.4113,16.1954 10.3699,16.1715 10.3296,16.1457 10.2908,16.118 9.58099,15.5641 9.62025,15.5921 9.6609,15.6182 9.70281,15.6424 9.74595,15.6645 9.79027,15.6847 9.83568,15.7027 9.88214,15.7184 9.92956,15.732 9.97789,15.7432 10.0271,15.7521 10.077,15.7585 10.1277,15.7623 10.179,15.7636 "></polygon> <path id="_102881656" fill="#8C2E2E" d="M9.89171 15.3244l0 0zm-0.713791 -0.561856l0 0z"></path> <polygon id="_102881608" fill="#8C2E2E" points="10.179,14.2652 10.8828,14.832 10.8328,14.8346 10.7841,14.8421 10.7371,14.8543 10.692,14.871 10.649,14.8919 10.6084,14.9167 10.5704,14.9451 10.5354,14.977 10.5035,15.0121 10.475,15.05 10.4502,15.0907 10.4293,15.1336 10.4127,15.1788 10.4005,15.2258 10.3929,15.2744 10.3904,15.3244 10.3929,15.3745 10.4005,15.4231 10.4127,15.4701 10.4293,15.5152 10.4502,15.5582 10.475,15.5988 10.5035,15.6368 10.5354,15.6719 10.5704,15.7037 9.86348,15.1457 9.82807,15.1135 9.79586,15.0781 9.7671,15.0398 9.74207,14.9987 9.72099,14.9553 9.70414,14.9097 9.6918,14.8622 9.6842,14.8131 9.6816,14.7626 9.6842,14.7121 9.6918,14.663 9.70414,14.6155 9.72099,14.5699 9.74207,14.5264 9.7671,14.4854 9.79586,14.4471 9.82807,14.4117 9.86348,14.3795 9.90184,14.3507 9.94284,14.3257 9.98628,14.3046 10.0319,14.2877 10.0794,14.2754 10.1285,14.2678 "></polygon> <polygon id="_102881560" fill="#8C2E2E" points="13.539,15.26 14.2092,15.8168 14.2092,19.1433 14.2118,19.1933 14.2193,19.2419 14.2315,19.289 14.2482,19.3341 14.2691,19.3771 14.2939,19.4177 14.3223,19.4557 14.3542,19.4907 14.3893,19.5226 13.7209,19.0031 13.6855,18.9709 13.6533,18.9355 13.6245,18.8972 13.5995,18.8562 13.5784,18.8127 13.5616,18.7671 13.5492,18.7197 13.5416,18.6705 13.539,18.62 "></polygon> <polygon id="_102881512" fill="#8C2E2E" points="14.7086,10.1649 15.3671,10.7728 15.4016,10.8056 15.4344,10.8401 15.4656,10.8761 15.4951,10.9136 15.5228,10.9524 15.5487,10.9927 15.5726,11.0342 15.5946,11.0769 15.6145,11.1207 15.6323,11.1657 15.6479,11.2117 15.6614,11.2587 15.6725,11.3065 15.6812,11.3552 15.6875,11.4046 15.6914,11.4548 15.6927,11.5056 15.6927,14.3334 15.0375,13.7615 15.0375,10.9051 15.0362,10.8538 15.0323,10.8032 15.0259,10.7532 15.0171,10.704 15.0058,10.6557 14.9923,10.6083 14.9765,10.5618 14.9585,10.5164 14.9384,10.4721 14.9162,10.429 14.892,10.3871 14.8659,10.3464 14.838,10.3071 14.8082,10.2693 14.7766,10.2329 14.7434,10.1981 "></polygon> <polygon id="_102881464" fill="#8C2E2E" points="18.2094,14.3795 18.8329,14.9451 18.7949,14.9167 18.7543,14.8919 18.7113,14.871 18.6661,14.8543 18.6191,14.8421 18.5705,14.8346 18.5205,14.832 15.194,14.832 14.5338,14.2652 17.8939,14.2652 17.9444,14.2678 17.9935,14.2754 18.041,14.2877 18.0866,14.3046 18.13,14.3257 18.171,14.3507 "></polygon> <polygon id="_102881416" fill="#8C2E2E" points="13.539,14.2652 14.2092,14.832 10.8828,14.832 10.179,14.2652 "></polygon> <g> <path id="_102881368" fill="#E25A5B" d="M10.179 13.7615l2.85637 0 0 -2.85637c0,-0.550624 0.450467,-1.00109 1.00107,-1.00107l0 0c0.550599,-2.5184e-005 1.00107,0.450442 1.00107,1.00107l0 2.85637 2.85637 0c0.550624,0 1.00109,0.450467 1.00107,1.00107l0 0c2.5184e-005,0.550599 -0.450442,1.00107 -1.00107,1.00107l-2.85637 0 0 2.85637c0,0.550624 -0.450467,1.00109 -1.00107,1.00107l0 0c-0.550599,2.5184e-005 -1.00107,-0.450442 -1.00107,-1.00107l0 -2.85637 -2.85637 0c-0.550624,0 -1.00109,-0.450467 -1.00107,-1.00107l0 0c-2.5184e-005,-0.550599 0.450442,-1.00107 1.00107,-1.00107zm0 0.503681c-0.272567,0 -0.497385,0.224793 -0.497385,0.497385 0,0.272592 0.224818,0.497385 0.497385,0.497385l3.36005 0 0 3.36005c0,0.272567 0.224793,0.497385 0.497385,0.497385 0.272592,0 0.497385,-0.224818 0.497385,-0.497385l0 -3.36005 3.36005 0c0.272567,0 0.497385,-0.224793 0.497385,-0.497385 0,-0.272592 -0.224818,-0.497385 -0.497385,-0.497385l-3.36005 0 0 -3.36005c0,-0.272567 -0.224793,-0.497385 -0.497385,-0.497385 -0.272592,0 -0.497385,0.224818 -0.497385,0.497385l0 3.36005 -3.36005 0z"></path> <path id="_102832880" fill="#F8C300" d="M21.0181 16.7823l5.45524 -5.45524c0.389345,-0.389345 1.0264,-0.389345 1.41572,0l0 0c0.389345,0.38932 0.389345,1.02638 0,1.41572l-5.45524 5.45524c-0.389345,0.389345 -1.0264,0.389345 -1.41572,0l0 0c-0.389345,-0.38932 -0.389345,-1.02638 0,-1.41572zm5.85368 -0.819992c0.570167,0 1.03255,0.462379 1.03255,1.03255 0,0.570167 -0.462379,1.03255 -1.03255,1.03255 -0.570167,0 -1.03255,-0.462379 -1.03255,-1.03255 0,-0.570167 0.462379,-1.03255 1.03255,-1.03255zm-4.69305 -4.66164c0.570167,0 1.03255,0.462379 1.03255,1.03255 0,0.570167 -0.462379,1.03255 -1.03255,1.03255 -0.570167,0 -1.03255,-0.462379 -1.03255,-1.03255 0,-0.570167 0.462379,-1.03255 1.03255,-1.03255zm-0.804479 5.83779c-0.192733,0.192733 -0.192759,0.510657 0,0.703415 0.192759,0.192759 0.510682,0.192733 0.703415,0l5.45524 -5.45524c0.192733,-0.192733 0.192759,-0.510657 0,-0.703415 -0.192759,-0.192759 -0.510682,-0.192733 -0.703415,0l-5.45524 5.45524zm5.49753 -0.672464c-0.29216,0 -0.528865,0.236705 -0.528865,0.528865 0,0.29216 0.236705,0.528865 0.528865,0.528865 0.29216,0 0.528865,-0.236705 0.528865,-0.528865 0,-0.29216 -0.236705,-0.528865 -0.528865,-0.528865zm-4.69305 -4.66164c-0.29216,0 -0.528865,0.236705 -0.528865,0.528865 0,0.29216 0.236705,0.528865 0.528865,0.528865 0.29216,0 0.528865,-0.236705 0.528865,-0.528865 0,-0.29216 -0.236705,-0.528865 -0.528865,-0.528865z"></path> <path id="_102832832" fill="url(#id0)" d="M10.6009 26.8781l2.01976 -2.01976 -2.01976 -2.01976c-0.389345,-0.38932 -0.389345,-1.02635 0,-1.41572l0 0c0.38932,-0.38937 1.02638,-0.38937 1.41572,0l2.01976 2.01976 2.01976 -2.01976c0.38932,-0.389345 1.02635,-0.389345 1.41572,0l0 0c0.38937,0.38932 0.38937,1.02638 0,1.41572l-2.01976 2.01976 2.01976 2.01976c0.389345,0.38932 0.389345,1.02635 0,1.41572l0 0c-0.38932,0.38937 -1.02638,0.38937 -1.41572,0l-2.01976 -2.01976 -2.01976 2.01976c-0.38932,0.389345 -1.02635,0.389345 -1.41572,0l0 0c-0.38937,-0.38932 -0.38937,-1.02638 0,-1.41572zm0.356153 0.356153c-0.192759,0.192759 -0.192784,0.510657 0,0.70339 0.192733,0.192759 0.510657,0.192809 0.703415,2.5184e-005l2.37591 -2.37591 2.37591 2.37591c0.192759,0.192759 0.510657,0.192784 0.70339,0 0.192759,-0.192733 0.192809,-0.510657 2.5184e-005,-0.703415l-2.37591 -2.37591 2.37591 -2.37591c0.192759,-0.192759 0.192784,-0.510657 0,-0.70339 -0.192733,-0.192759 -0.510657,-0.192809 -0.703415,-2.5184e-005l-2.37591 2.37591 -2.37591 -2.37591c-0.192759,-0.192759 -0.510657,-0.192784 -0.70339,0 -0.192759,0.192733 -0.192809,0.510657 -2.5184e-005,0.703415l2.37591 2.37591 -2.37591 2.37591z"></path> <path id="_102832784" fill="#84C225" d="M20.5961 24.361c-0.272567,0 -0.497385,0.224793 -0.497385,0.497385 0,0.272592 0.224818,0.497385 0.497385,0.497385l7.71488 0c0.272567,0 0.497385,-0.224793 0.497385,-0.497385 0,-0.272592 -0.224818,-0.497385 -0.497385,-0.497385l-7.71488 0zm0 -0.503681l7.71488 0c0.550624,0 1.00109,0.450467 1.00107,1.00107l0 0c2.5184e-005,0.550599 -0.450442,1.00107 -1.00107,1.00107l-7.71488 0c-0.550624,0 -1.00109,-0.450467 -1.00107,-1.00107l0 0c-2.5184e-005,-0.550599 0.450442,-1.00107 1.00107,-1.00107z"></path> </g> </g> </g> </svg> 