<?xml version="1.0" encoding="UTF-8"?> <!-- Creator: CorelDRAW --> <svg xmlns="http://www.w3.org/2000/svg" xmlns:xlink="http://www.w3.org/1999/xlink" xml:space="preserve" width="152.835mm" height="152.835mm" shape-rendering="geometricPrecision" text-rendering="geometricPrecision" image-rendering="optimizeQuality" fill-rule="evenodd" clip-rule="evenodd" viewBox="0 0 24.2478 24.2478"> <g id="Слой_x0020_1"> <metadata id="CorelCorpID_0Corel-Layer"></metadata> <g id="_103054480"> <path id="_102832712" fill="#606062" fill-rule="nonzero" d="M12.0725 0l6.34615e-005 0 0 0.000571154c3.34772,1.58654e-005 6.38442,1.35711 8.5875,3.55088 2.20305,2.19375 3.57298,5.22468 3.58721,8.57235l0.000571154 0 0 0.000111058 0 4.75961e-005 -0.000571154 0c0.0141836,3.34772 -1.33004,6.37868 -3.51451,8.57244 -2.18444,2.19375 -5.2096,3.55081 -8.55728,3.55085l0 0.000571154 -0.000111058 0 -4.75961e-005 0 0 -0.000571154c-3.34772,-1.58654e-005 -6.38443,-1.35711 -8.5875,-3.55088 -2.20307,-2.19375 -3.57299,-5.22468 -3.58723,-8.57235l-0.000571154 0 0 -0.000111058 0 -4.75961e-005 0.000571154 0c-0.0141836,-3.34772 1.33004,-6.37868 3.51451,-8.57244 2.18446,-2.19375 5.2096,-3.55081 8.55728,-3.55085l0 -0.000571154 0.000111058 0z"></path> <path id="_102832568" fill="#4A4F57" d="M10.4084 13.8932l-4.73501 5.0723 0.562015 0.2673 10.8811 3.96284c1.35736,-0.608406 2.5812,-1.45982 3.61621,-2.49924 1.50745,-1.51386 2.61463,-3.42643 3.15156,-5.56661l-8.00787 -2.82039 -0.299427 -0.142487 -5.16862 1.72628z"></path> <g> <polygon id="_102832520" fill="#9E850E" points="18.6402,18.764 18.5757,18.9655 5.67336,18.9655 5.60759,18.764 "></polygon> <polygon id="_102832472" fill="#9E850E" points="16.599,14.368 16.5549,14.6134 11.9691,14.6134 11.9444,14.6147 11.9204,14.6184 11.8971,14.6244 11.8749,14.6326 11.8537,14.6429 11.8336,14.6551 11.8149,14.6691 11.7977,14.6847 11.782,14.702 11.768,14.7207 11.7558,14.7407 11.7455,14.7619 11.7373,14.7842 11.7313,14.8074 11.7276,14.8315 11.7264,14.8562 11.7264,14.8562 11.7217,14.6132 11.7217,14.6132 11.723,14.5882 11.7267,14.5639 11.7328,14.5405 11.7411,14.518 11.7514,14.4966 11.7637,14.4763 11.7779,14.4575 11.7937,14.44 11.8112,14.4242 11.8301,14.41 11.8503,14.3977 11.8717,14.3873 11.8942,14.379 11.9177,14.373 11.9419,14.3693 11.9669,14.368 "></polygon> </g> <path id="_102832400" fill="#F8C300" d="M18.6402 18.764l-13.0326 0 3.07289 -6.58281 6.89652 -0.0142788 1.02202 2.20107 -4.6321 0c-0.134824,0 -0.245199,0.11036 -0.245199,0.245184l0 1.58654e-005c0,0.13484 0.110328,0.245199 0.245199,0.245199l4.85982 0 1.81351 3.90563z"></path> <path id="_102832352" fill="#DEDEDD" d="M12.5034 11.2902l0 3.33387c-0.0245279,0.292827 -0.84334,0.277533 -0.849099,0l0 -3.33387 -1.18854 -1.74435 0 -1.27729 -1.36031 0 -3.17308e-005 0c-0.38299,0 -0.696331,-0.313373 -0.696331,-0.696347l0 -1.58654e-005 0 -2.09525 7.37451 -0.0225447 0 2.11779 0 1.58654e-005c0,0.382974 -0.313357,0.696347 -0.696331,0.696347l0 0 -1.3956 0 0 1.27729 -1.18827 1.74435z"></path> <path id="_102832304" fill="#969594" d="M10.4658 8.26856l-0.508914 0 -0.8514 0 -3.17308e-005 0c-0.38299,0 -0.696331,-0.313373 -0.696331,-0.696347l0 -1.58654e-005 0 -0.110931c0.0645404,0.42378 0.271012,0.65735 0.643516,0.668345 1.94279,0 1.64483,0 3.58764,0 0.270949,-0.00521971 0.475596,-0.136395 0.471773,-0.49143l0 -2.18243 2.67159 -0.00134856 0 2.11779 0 1.58654e-005c0,0.382974 -0.313357,0.696347 -0.696331,0.696347l0 0 -1.29723 0 -0.0983653 0 -3.22591 0z"></path> <path id="_102832256" fill="#969594" d="M12.5034 11.2902l0 3.33387c-0.00207836,0.131461 -0.188893,0.206996 -0.311184,0.206996l0 -3.64461 0.357495 0.0357923 -0.046311 0.0679514z"></path> <polygon id="_102832208" fill="#969594" points="11.5789,11.1829 11.6543,11.2902 12.5034,11.2902 13.6917,9.54585 13.6917,8.26856 12.4378,8.26856 12.4378,9.56111 12.1932,11.1829 "></polygon> <path id="_102832160" fill="#9E850E" d="M17.8105 16.977l-5.81723 -2.1186 1.19119 0 4.3349 1.49158 0.291146 0.627016zm-6.01766 -2.1916l-0.0193558 -0.00704423 0.0106298 -0.00225288c0.0028399,0.00317308 0.00574327,0.00628269 0.00872596,0.00929711z"></path> </g> </g> </svg> 