<?xml version="1.0" encoding="UTF-8"?> <!-- Creator: CorelDRAW --> <svg xmlns="http://www.w3.org/2000/svg" xmlns:xlink="http://www.w3.org/1999/xlink" xml:space="preserve" width="152.835mm" height="152.835mm" shape-rendering="geometricPrecision" text-rendering="geometricPrecision" image-rendering="optimizeQuality" fill-rule="evenodd" clip-rule="evenodd" viewBox="0 0 17.2669 17.2669"> <g id="Слой_x0020_1"> <metadata id="CorelCorpID_0Corel-Layer"></metadata> <g id="_103121672"> <path id="_102832664" fill="#606062" fill-rule="nonzero" d="M8.59682 0l4.5191e-005 0 0 0.000406719c2.38392,1.12978e-005 4.54635,0.966398 6.11517,2.52858 1.56879,1.56217 2.54432,3.7205 2.55446,6.10438l0.000406719 0 0 7.90843e-005 0 3.38933e-005 -0.000406719 0c0.0101002,2.38392 -0.947124,4.54226 -2.50269,6.10445 -1.55554,1.56217 -3.70976,2.52854 -6.09365,2.52856l0 0.000406719 -7.90843e-005 0 -3.38933e-005 0 0 -0.000406719c-2.38392,-1.12978e-005 -4.54636,-0.966398 -6.11517,-2.52858 -1.56881,-1.56217 -2.54433,-3.7205 -2.55447,-6.10438l-0.000406719 0 0 -7.90843e-005 0 -3.38933e-005 0.000406719 0c-0.0101002,-2.38392 0.947124,-4.54226 2.50269,-6.10445 1.55555,-1.56217 3.70976,-2.52854 6.09365,-2.52856l0 -0.000406719 7.90843e-005 0z"></path> <path id="_102327728" fill="#4A4F57" d="M12.4494 4.42017l4.3853 1.54452c0.276467,0.840395 0.427823,1.73733 0.431777,2.66869l0.000406719 0 0 7.90843e-005 0 3.38933e-005 -0.000406719 0c0.0101002,2.38392 -0.947124,4.54226 -2.50269,6.10445 -0.250776,0.251849 -0.517245,0.488074 -0.797599,0.707409l-5.78332 -2.03631 -2.61714 -5.71176 3.88334 1.36889 3.00032 -4.646z"></path> <g> <path id="_102832112" fill="#688624" d="M12.3659 4.44486l0 0zm-0.234564 -0.367019l0 0z"></path> <polygon id="_102832064" fill="#688624" points="12.2175,4.39277 12.4503,4.75349 12.4394,4.73675 12.4277,4.72054 12.4152,4.70488 12.4018,4.68981 12.3877,4.67537 12.3728,4.66159 12.3571,4.64853 12.3407,4.63618 12.3235,4.62462 12.3055,4.61387 12.2868,4.60397 12.0507,4.24019 12.0697,4.25029 12.088,4.26126 12.1056,4.27306 12.1224,4.28565 12.1384,4.29899 12.1536,4.31305 12.168,4.32778 12.1816,4.34316 12.1944,4.35914 12.2064,4.37569 "></polygon> <polygon id="_102832016" fill="#2C763C" points="12.404,4.88537 12.6331,5.23625 8.88899,13.0984 8.58347,12.908 "></polygon> <polygon id="_102831968" fill="#2C763C" points="8.58347,12.908 8.88899,13.0984 8.87949,13.1175 8.86939,13.1361 8.85871,13.1541 8.84747,13.1717 8.83569,13.1887 8.82337,13.2052 8.81055,13.2211 8.79725,13.2365 8.78345,13.2514 8.76921,13.2657 8.75454,13.2795 8.73942,13.2927 8.72391,13.3054 8.70802,13.3174 8.69176,13.3289 8.67514,13.3398 8.65819,13.3501 8.64093,13.3598 8.62337,13.3689 8.60552,13.3774 8.58742,13.3853 8.56906,13.3926 8.55048,13.3992 8.53169,13.4052 8.51272,13.4106 8.49355,13.4153 8.47424,13.4194 8.45477,13.4228 8.43521,13.4255 8.41551,13.4276 8.39575,13.429 8.37592,13.4297 8.05992,13.2461 8.08016,13.2453 8.10033,13.2439 8.12042,13.2418 8.14039,13.239 8.16025,13.2355 8.17996,13.2314 8.19951,13.2265 8.21888,13.2211 8.23805,13.2149 8.25701,13.2082 8.27574,13.2008 8.29421,13.1927 8.31242,13.184 8.33034,13.1747 8.34795,13.1648 8.36525,13.1543 8.38221,13.1432 8.3988,13.1315 8.41502,13.1192 8.43084,13.1063 8.44627,13.0928 8.46125,13.0787 8.47578,13.0641 8.48985,13.0489 8.50343,13.0332 8.51652,13.0169 8.52908,13.0001 8.5411,12.9827 8.55258,12.9648 8.56347,12.9464 8.57377,12.9275 "></polygon> <polygon id="_102821712" fill="#2C763C" points="8.05992,13.2461 8.37592,13.4297 8.35635,13.4306 8.33678,13.4308 8.31727,13.4304 8.29779,13.4293 8.27837,13.4275 8.25905,13.4251 8.23981,13.422 8.2207,13.4183 8.20172,13.414 8.18288,13.409 8.16423,13.4034 8.14575,13.3972 8.12748,13.3904 8.10942,13.3829 8.09161,13.3748 8.07405,13.3661 8.05675,13.3568 7.73425,13.1717 7.7519,13.1812 7.76981,13.19 7.78799,13.1983 7.80642,13.2059 7.82506,13.2129 7.84392,13.2192 7.86295,13.2249 7.88217,13.23 7.90153,13.2344 7.92105,13.2382 7.94067,13.2413 7.96038,13.2438 7.9802,13.2456 8.00007,13.2467 8.01999,13.2472 8.03995,13.247 "></polygon> <path id="_102821664" fill="#688624" d="M5.4629 8.05122l0 0zm-0.375447 -0.293425l0 0z"></path> <polygon id="_102821616" fill="#2C763C" points="6.12645,8.04328 6.48111,8.331 6.56521,8.40139 6.65048,8.47595 6.73662,8.55417 6.82337,8.63555 6.91046,8.71958 6.99761,8.80576 7.08458,8.8936 7.17108,8.9826 7.25684,9.07224 7.34161,9.16202 7.42509,9.25145 7.50703,9.34001 7.58716,9.4272 7.66521,9.51255 7.74093,9.59551 7.814,9.67562 7.88419,9.75234 7.95123,9.82519 8.01484,9.89367 8.07476,9.95725 8.13071,10.0155 8.18243,10.0678 8.22964,10.1137 7.91066,9.86238 7.86249,9.81551 7.80971,9.76212 7.75262,9.70272 7.69147,9.63784 7.62657,9.56796 7.55816,9.49364 7.48653,9.41534 7.41197,9.3336 7.33471,9.24895 7.25508,9.16187 7.1733,9.07288 7.08969,8.98251 7.0045,8.89126 6.91801,8.79965 6.8305,8.70818 6.74224,8.61737 6.65349,8.52773 6.56456,8.43979 6.47569,8.35404 6.38717,8.271 6.29928,8.19119 6.21227,8.11511 "></polygon> <polygon id="_102821568" fill="#688624" points="12.0507,4.24019 12.2868,4.60397 12.2669,4.59476 12.247,4.58688 12.2271,4.58029 12.2071,4.57496 12.1872,4.57086 12.1674,4.56795 12.1476,4.56622 12.1279,4.56561 12.1083,4.56612 12.0889,4.5677 12.0696,4.57032 12.0505,4.57395 12.0316,4.57856 12.0129,4.58411 11.9944,4.59058 11.9762,4.59794 11.9583,4.60614 11.9407,4.61518 11.9234,4.62499 11.9065,4.63557 11.89,4.64688 11.8738,4.65888 11.858,4.67154 11.8427,4.68484 11.8278,4.69875 11.8134,4.71322 11.7995,4.72822 11.7861,4.74374 11.7732,4.75973 11.7609,4.77617 11.7491,4.79303 11.738,4.81025 11.4906,4.45069 11.502,4.4331 11.5139,4.41591 11.5265,4.39913 11.5396,4.38282 11.5533,4.36698 11.5675,4.35167 11.5822,4.3369 11.5974,4.32271 11.6131,4.30914 11.6292,4.29622 11.6457,4.28397 11.6626,4.27244 11.6799,4.26165 11.6975,4.25163 11.7154,4.24241 11.7337,4.23404 11.7523,4.22653 11.7711,4.21992 11.7902,4.21426 11.8095,4.20956 11.829,4.20586 11.8486,4.20318 11.8685,4.20158 11.8885,4.20106 11.9085,4.20168 11.9287,4.20344 11.949,4.2064 11.9693,4.21059 11.9897,4.21603 12.01,4.22275 12.0304,4.23079 "></polygon> <polygon id="_102821520" fill="#688624" points="11.4906,4.45069 11.738,4.81025 8.26541,10.3926 7.94717,10.1469 "></polygon> <polygon id="_102821472" fill="#688624" points="5.96646,8.14751 6.32432,8.43314 6.27953,8.39808 6.23498,8.36444 6.19085,8.3324 6.14725,8.30216 6.10437,8.27394 6.06231,8.24793 6.02122,8.22432 5.98123,8.20334 5.94253,8.18516 5.90522,8.17 5.86944,8.15807 5.83536,8.14954 5.8031,8.14464 5.78692,8.14342 5.77077,8.14285 5.75463,8.14293 5.73855,8.14369 5.72254,8.14509 5.7066,8.14715 5.69078,8.14985 5.67509,8.15317 5.65954,8.15713 5.64416,8.16172 5.62898,8.16694 5.614,8.17277 5.59923,8.17923 5.58473,8.18628 5.57048,8.19395 5.55653,8.20221 5.53893,8.21377 5.52214,8.22611 5.50613,8.23919 5.49092,8.253 5.47652,8.26745 5.46295,8.28255 5.45019,8.29824 5.43826,8.31449 5.42718,8.33127 5.41696,8.34852 5.40758,8.36621 5.39905,8.3843 5.39141,8.40277 5.38463,8.42156 5.37876,8.44065 5.37376,8.45999 5.36967,8.47954 5.3665,8.49928 5.36423,8.51915 5.36288,8.53912 5.36247,8.55916 5.363,8.57922 5.36447,8.59927 5.36689,8.61928 5.37028,8.63919 5.37465,8.65897 5.37997,8.6786 5.38629,8.69803 5.3936,8.71721 5.40191,8.73611 5.41122,8.7547 5.42154,8.77293 5.04526,8.49424 5.03472,8.47563 5.02522,8.45666 5.01674,8.43738 5.00929,8.4178 5.00284,8.39798 4.9974,8.37795 4.99295,8.35776 4.98949,8.33745 4.98702,8.31703 4.98552,8.29657 4.98497,8.2761 4.9854,8.25565 4.98677,8.23527 4.98909,8.21499 4.99233,8.19486 4.9965,8.17491 5.00159,8.15517 5.00759,8.13569 5.01451,8.11652 5.0223,8.09767 5.031,8.07921 5.04057,8.06116 5.05101,8.04356 5.06232,8.02644 5.07449,8.00986 5.0875,7.99385 5.10135,7.97844 5.11605,7.96368 5.13156,7.94961 5.1479,7.93625 5.16504,7.92367 5.18299,7.91187 5.19724,7.90344 5.21177,7.89561 5.22658,7.88842 5.24164,7.88183 5.25692,7.87588 5.27242,7.87056 5.28812,7.86587 5.30398,7.86182 5.31999,7.85843 5.33613,7.85568 5.35239,7.85359 5.36873,7.85215 5.38514,7.85138 5.4016,7.85129 5.4181,7.85187 5.4346,7.85312 5.46751,7.85813 5.5023,7.86683 5.5388,7.87901 5.57687,7.89447 5.61637,7.91302 5.65717,7.93443 5.69909,7.95852 5.74201,7.98506 5.78578,8.01386 5.83026,8.04471 5.87529,8.07741 5.92074,8.11174 "></polygon> <polygon id="_102821424" fill="#688624" points="5.04526,8.49424 5.42154,8.77293 7.99406,13.0565 8.00151,13.0684 8.00933,13.08 8.01752,13.0913 8.02606,13.1023 8.03495,13.1129 8.04417,13.1232 8.05371,13.1331 8.06357,13.1428 8.07372,13.152 8.08416,13.1609 8.09488,13.1694 8.10588,13.1775 8.11713,13.1853 8.12862,13.1927 8.14035,13.1996 7.81955,13.0113 7.80758,13.0042 7.79585,12.9966 7.78438,12.9887 7.77316,12.9804 7.76221,12.9717 7.75156,12.9627 7.7412,12.9532 7.73114,12.9434 7.7214,12.9333 7.71199,12.9228 7.70292,12.9119 7.69421,12.9008 7.68585,12.8892 7.67787,12.8774 7.67028,12.8652 "></polygon> <polygon id="_102821376" fill="#2C763C" points="12.3693,4.29377 12.5991,4.65647 12.6137,4.68086 12.627,4.7059 12.6391,4.73152 12.65,4.75767 12.6597,4.78434 12.6681,4.81143 12.6753,4.83892 12.6811,4.86672 12.6857,4.89484 12.689,4.92318 12.6909,4.95171 12.6915,4.98038 12.6907,5.00914 12.6885,5.03793 12.6849,5.0667 12.6799,5.09542 12.6735,5.12402 12.6656,5.15244 12.6563,5.18066 12.6455,5.20861 12.6331,5.23625 12.404,4.88537 12.4166,4.85717 12.4276,4.82866 12.4372,4.79986 12.4452,4.77085 12.4518,4.74168 12.4569,4.71237 12.4605,4.68301 12.4627,4.65363 12.4635,4.62428 12.463,4.59503 12.461,4.56592 12.4577,4.537 12.453,4.50831 12.447,4.47993 12.4397,4.45189 12.4311,4.42424 12.4213,4.39704 12.4101,4.37034 12.3977,4.3442 12.3841,4.31866 "></polygon> </g> <path id="_102821304" fill="#84C225" d="M12.0507 4.24019c-0.216386,-0.107532 -0.442149,0.020946 -0.560063,0.2105l-3.54344 5.69624 -0.161287 -0.153028c-0.164258,-0.15583 -0.320528,-0.332753 -0.473274,-0.500197 -0.20458,-0.22426 -0.408922,-0.448656 -0.619761,-0.667087 -0.233875,-0.242303 -0.917615,-0.940538 -1.25824,-0.973493 -0.0880095,-0.0085185 -0.17646,0.0121451 -0.251612,0.0587483 -0.1957,0.12136 -0.255691,0.385942 -0.137731,0.582365l2.62502 4.371c0.0788922,0.131382 0.225548,0.209381 0.378407,0.199902l0.00387513 -0.000237253 0.00387513 -7.90843e-005c0.155706,-0.00298261 0.296227,-0.0938165 0.363347,-0.234767l3.82056 -8.02263c0.0986181,-0.20711 0.0176019,-0.464202 -0.189678,-0.567226z"></path> <path id="_102821256" fill="#84C225" d="M12.1314 4.07784l0 0c0.293527,0.145877 0.414978,0.50867 0.272671,0.807529l-3.82056 8.02263c-0.100087,0.210206 -0.307299,0.333928 -0.523549,0.338074 -0.212996,0.0132071 -0.426716,-0.0904498 -0.54506,-0.287505l-2.62502 -4.371c-0.170201,-0.283427 -0.0812873,-0.656829 0.19762,-0.829786l0 0c0.113294,-0.0702607 0.24123,-0.097059 0.364612,-0.0851286 0.650739,0.0629737 1.97017,1.72634 2.45859,2.18972l3.42601 -5.50745c0.174855,-0.281099 0.501157,-0.422954 0.794684,-0.277089z"></path> </g> </g> </svg> 